<svg id="visual" viewBox="0 0 960 540" width="960" height="540" xmlns="http://www.w3.org/2000/svg" xmlns:xlink="http://www.w3.org/1999/xlink" version="1.1"><path d="M0 386L22.8 377C45.7 368 91.3 350 137 352.3C182.7 354.7 228.3 377.3 274 375.2C319.7 373 365.3 346 411.2 332.5C457 319 503 319 548.8 329C594.7 339 640.3 359 686 362.2C731.7 365.3 777.3 351.7 823 341.2C868.7 330.7 914.3 323.3 937.2 319.7L960 316L960 541L937.2 541C914.3 541 868.7 541 823 541C777.3 541 731.7 541 686 541C640.3 541 594.7 541 548.8 541C503 541 457 541 411.2 541C365.3 541 319.7 541 274 541C228.3 541 182.7 541 137 541C91.3 541 45.7 541 22.8 541L0 541Z" fill="#5dc7f9"></path><path d="M0 369L22.8 374.8C45.7 380.7 91.3 392.3 137 393.8C182.7 395.3 228.3 386.7 274 386.3C319.7 386 365.3 394 411.2 392.3C457 390.7 503 379.3 548.8 381.7C594.7 384 640.3 400 686 410.3C731.7 420.7 777.3 425.3 823 417.8C868.7 410.3 914.3 390.7 937.2 380.8L960 371L960 541L937.2 541C914.3 541 868.7 541 823 541C777.3 541 731.7 541 686 541C640.3 541 594.7 541 548.8 541C503 541 457 541 411.2 541C365.3 541 319.7 541 274 541C228.3 541 182.7 541 137 541C91.3 541 45.7 541 22.8 541L0 541Z" fill="#4ed3fc"></path><path d="M0 435L22.8 431.5C45.7 428 91.3 421 137 414.3C182.7 407.7 228.3 401.3 274 403.5C319.7 405.7 365.3 416.3 411.2 425.7C457 435 503 443 548.8 437.7C594.7 432.3 640.3 413.7 686 405.2C731.7 396.7 777.3 398.3 823 402.3C868.7 406.3 914.3 412.7 937.2 415.8L960 419L960 541L937.2 541C914.3 541 868.7 541 823 541C777.3 541 731.7 541 686 541C640.3 541 594.7 541 548.8 541C503 541 457 541 411.2 541C365.3 541 319.7 541 274 541C228.3 541 182.7 541 137 541C91.3 541 45.7 541 22.8 541L0 541Z" fill="#46dffc"></path><path d="M0 483L22.8 477C45.7 471 91.3 459 137 457.5C182.7 456 228.3 465 274 465.7C319.7 466.3 365.3 458.7 411.2 460.5C457 462.3 503 473.7 548.8 478.5C594.7 483.3 640.3 481.7 686 473.2C731.7 464.7 777.3 449.3 823 444C868.7 438.7 914.3 443.3 937.2 445.7L960 448L960 541L937.2 541C914.3 541 868.7 541 823 541C777.3 541 731.7 541 686 541C640.3 541 594.7 541 548.8 541C503 541 457 541 411.2 541C365.3 541 319.7 541 274 541C228.3 541 182.7 541 137 541C91.3 541 45.7 541 22.8 541L0 541Z" fill="#49eaf9"></path><path d="M0 490L22.8 493.8C45.7 497.7 91.3 505.3 137 504.2C182.7 503 228.3 493 274 490.7C319.7 488.3 365.3 493.7 411.2 492.3C457 491 503 483 548.8 483.7C594.7 484.3 640.3 493.7 686 498.7C731.7 503.7 777.3 504.3 823 502.2C868.7 500 914.3 495 937.2 492.5L960 490L960 541L937.2 541C914.3 541 868.7 541 823 541C777.3 541 731.7 541 686 541C640.3 541 594.7 541 548.8 541C503 541 457 541 411.2 541C365.3 541 319.7 541 274 541C228.3 541 182.7 541 137 541C91.3 541 45.7 541 22.8 541L0 541Z" fill="#56f4f4"></path></svg>